<svg width="80" height="80" viewBox="0 0 80 80" fill="none" xmlns="http://www.w3.org/2000/svg">
<path class="cls-1" d="M64.4334 18.9333L43.5334 7.66666C41.3334 6.46666 38.6668 6.46666 36.4668 7.66666L15.5668 18.9333C14.0334 19.7667 13.1001 21.3667 13.1001 23.2C13.1001 25 14.0334 26.6333 15.5668 27.4667L36.4668 38.7333C37.5668 39.3333 38.8001 39.6333 40.0001 39.6333C41.2001 39.6333 42.4334 39.3333 43.5334 38.7333L64.4334 27.4667C65.9668 26.6333 66.9001 25.0333 66.9001 23.2C66.9001 21.3667 65.9668 19.7667 64.4334 18.9333Z" fill="#7776B3"/>
<path class="cls-2" opacity="0.4" d="M33.0332 42.6333L13.5665 32.9C12.0665 32.1666 10.3332 32.2333 8.93317 33.1C7.49984 34 6.6665 35.5 6.6665 37.1666V55.5333C6.6665 58.7 8.43317 61.5666 11.2665 63L30.6998 72.7333C31.3665 73.0666 32.0998 73.2333 32.8332 73.2333C33.6998 73.2333 34.5665 73 35.3332 72.5333C36.7665 71.6666 37.5998 70.1333 37.5998 68.4666V50.1C37.6332 46.9 35.8665 44.0333 33.0332 42.6333Z" fill="#7776B3"/>
<path class="cls-3" opacity="0.4" d="M71.0666 33.1C69.6332 32.2333 67.8999 32.1333 66.4332 32.9L46.9999 42.6333C44.1666 44.0666 42.3999 46.9 42.3999 50.1V68.4666C42.3999 70.1333 43.2332 71.6666 44.6666 72.5333C45.4332 73 46.2999 73.2333 47.1666 73.2333C47.8999 73.2333 48.6332 73.0666 49.2999 72.7333L68.7332 63C71.5666 61.5666 73.3332 58.7333 73.3332 55.5333V37.1666C73.3332 35.5 72.4999 34 71.0666 33.1Z" fill="#7776B3"/>
</svg>
